REM Ripping Tool: trurip

FILE "Kagami no Kuni no Legend (1989)(Victor)(JP).img" BINARY
  TRACK 01 AUDIO
    INDEX 01 00:00:00
  TRACK 02 MODE1/2352
    INDEX 00 00:55:25
    INDEX 01 00:58:25
  TRACK 03 AUDIO
    INDEX 00 16:03:45
    INDEX 01 16:05:45
  TRACK 04 AUDIO
    INDEX 01 19:10:13
  TRACK 05 AUDIO
    INDEX 01 22:51:68
  TRACK 06 AUDIO
    INDEX 01 26:53:20
  TRACK 07 MODE1/2352
    INDEX 00 31:39:20
    INDEX 01 31:42:20

REM DISC HASHES
REM CRC32 : cccea7c3
REM MD5   : 22fe606bbbb8896f0052660d0993cf35
REM SHA1  : 530b9d827af1fd246dd4f783109c7ef9e835e6e7

REM Gap Append Method: Prev [crc32]
REM Trk 01: 681aae0a
REM Trk 02: 7088e338
REM Trk 03: 9d7bca2f
REM Trk 04: 17a37a0c
REM Trk 05: f78a0de6
REM Trk 06: aab91280
REM Trk 07: 4e4e7fa6

REM Gap Append Method: Prev [md5]
REM Trk 01: e6635e352b914b80be3c813c56f95250
REM Trk 02: 09cf55cfaa5028ed970c421ed49b43fb
REM Trk 03: d346268fa444b4c86fd193343816ce97
REM Trk 04: e585206eca7241f463b71dca3dd5a79a
REM Trk 05: b1c8e8321348e6de9c4dfbc1e13ea76d
REM Trk 06: 7efd5319aed1eee3af4f762b2cb06690
REM Trk 07: c6467e1334ff8cb22841c6c4f981715d

REM Gap Append Method: Prev [sha1]
REM Trk 01: 0d25bd3736140531fb8abcf75bf513da46df115e
REM Trk 02: 8c1f8bdc6ca10688bd2cc81190dae1cb7e3bf76a
REM Trk 03: 34c9c653497c49ee9a9618fcb96c4929d825e97c
REM Trk 04: c773006fdeeef8d252205a148c964cdc5a536d60
REM Trk 05: 765ff110163649b061ea6daa1be1d3b47ace9552
REM Trk 06: 2593181b8ff7e332184cd115acbea5e2f558faf0
REM Trk 07: d7159fe6cea55654279d061fa41833e676ae0511

REM Gap Append Method: None [crc32]
REM Trk 01: dac1fdd5
REM Trk 02: b8ef1c29
REM Trk 03: 9d7bca2f
REM Trk 04: 17a37a0c
REM Trk 05: f78a0de6
REM Trk 06: 410545e0
REM Trk 07: 4e4e7fa6
REM Gap 02: e4403337
REM Gap 03: 7abe247f
REM Gap 07: 864111ed

REM Gap Append Method: None [md5]
REM Trk 01: 2d637930488e25421df004d8320fc1c3
REM Trk 02: 1ad3a93503af9013bff0b7a03c36d8ee
REM Trk 03: d346268fa444b4c86fd193343816ce97
REM Trk 04: e585206eca7241f463b71dca3dd5a79a
REM Trk 05: b1c8e8321348e6de9c4dfbc1e13ea76d
REM Trk 06: a90c4776b54d05a8447e280a9c67e57a
REM Trk 07: c6467e1334ff8cb22841c6c4f981715d
REM Gap 02: da1f4792f864e3265147f6ba13ff9b03
REM Gap 03: 9df204fbc98bb8965081cb30a89715fc
REM Gap 07: fae9e2a92312335561f349282c0fb765

REM Gap Append Method: None [sha1]
REM Trk 01: 89607b46782ff738a8d0250cf4e0003e4d1eda27
REM Trk 02: 5d66d6902288c602f34d64849c500c8d2cf55ac3
REM Trk 03: 34c9c653497c49ee9a9618fcb96c4929d825e97c
REM Trk 04: c773006fdeeef8d252205a148c964cdc5a536d60
REM Trk 05: 765ff110163649b061ea6daa1be1d3b47ace9552
REM Trk 06: edbd50b0b2cfb05671396499f8e1a9601c4ddff9
REM Trk 07: d7159fe6cea55654279d061fa41833e676ae0511
REM Gap 02: 372690bce9fbcf9d4dbeaff0dc21a1ff4634ae36
REM Gap 03: cbe29e0bd725ef1194f8c47619dd42078e841de2
REM Gap 07: 7282be156a290a6fea5edee53c73bc2b8a039e31

REM Gap Append Method: Next [crc32]
REM Trk 01: dac1fdd5
REM Trk 02: af63f99b
REM Trk 03: ec88f8fb
REM Trk 04: 17a37a0c
REM Trk 05: f78a0de6
REM Trk 06: 410545e0
REM Trk 07: e029326f

REM Gap Append Method: Next [md5]
REM Trk 01: 2d637930488e25421df004d8320fc1c3
REM Trk 02: 5a64f73f1423b1b9b0f610695c056505
REM Trk 03: e48a586155be82af630c5eacce67dc61
REM Trk 04: e585206eca7241f463b71dca3dd5a79a
REM Trk 05: b1c8e8321348e6de9c4dfbc1e13ea76d
REM Trk 06: a90c4776b54d05a8447e280a9c67e57a
REM Trk 07: 3bcb1bbebcf25e10e4e9c049cf6d43d4

REM Gap Append Method: Next [sha1]
REM Trk 01: 89607b46782ff738a8d0250cf4e0003e4d1eda27
REM Trk 02: 991e71cb81154709662879db1ec36040591e4752
REM Trk 03: 0462125dd6c911582e21e62ed22f183aa950c94d
REM Trk 04: c773006fdeeef8d252205a148c964cdc5a536d60
REM Trk 05: 765ff110163649b061ea6daa1be1d3b47ace9552
REM Trk 06: edbd50b0b2cfb05671396499f8e1a9601c4ddff9
REM Trk 07: 8985e23ec2fa78eebb574ce77360cedc05dec769

